<?xml version="1.0" encoding="utf-8"?>
<!-- Generator: Adobe Illustrator 16.0.0, SVG Export Plug-In . SVG Version: 6.00 Build 0)  -->
<!DOCTYPE svg PUBLIC "-//W3C//DTD SVG 1.1//EN" "http://www.w3.org/Graphics/SVG/1.1/DTD/svg11.dtd">
<svg version="1.1" xmlns="http://www.w3.org/2000/svg" xmlns:xlink="http://www.w3.org/1999/xlink" x="0px" y="0px"
	 width="263.512px" height="172.229px" viewBox="0 0 263.512 172.229" enable-background="new 0 0 263.512 172.229"
	 xml:space="preserve">
<g id="Layer_2">
	<polyline fill="none" stroke="#BCBEC0" stroke-width="0.5" stroke-miterlimit="10" points="220.143,22.312 13.726,97.604 
		220.143,54.837 	"/>
	<polyline fill="none" stroke="#BCBEC0" stroke-width="0.5" stroke-miterlimit="10" points="220.143,22.312 13.726,105.469 
		220.143,54.837 	"/>
	<polyline fill="none" stroke="#BCBEC0" stroke-width="0.5" stroke-miterlimit="10" points="220.143,22.312 13.726,112.533 
		220.143,54.837 	"/>
	<polyline fill="none" stroke="#BCBEC0" stroke-width="0.5" stroke-miterlimit="10" points="220.523,87.973 13.726,105.469 
		220.523,112.152 	"/>
	<polyline fill="none" stroke="#BCBEC0" stroke-width="0.5" stroke-miterlimit="10" points="220.523,87.973 13.726,112.533 
		220.523,112.152 	"/>
	<polyline fill="none" stroke="#BCBEC0" stroke-width="0.5" stroke-miterlimit="10" points="220.523,87.973 13.726,96.478 
		220.523,112.152 	"/>
	<polyline fill="none" stroke="#BCBEC0" stroke-width="0.5" stroke-miterlimit="10" points="220.523,138.984 13.726,105.469 
		220.523,163.164 	"/>
	<polyline fill="none" stroke="#BCBEC0" stroke-width="0.5" stroke-miterlimit="10" points="220.523,138.984 13.726,97.604 
		220.523,163.164 	"/>
	<polyline fill="none" stroke="#BCBEC0" stroke-width="0.5" stroke-miterlimit="10" points="220.523,138.984 13.726,112.533 
		220.523,163.164 	"/>
	<polyline fill="none" stroke="#154CFF" stroke-width="0.5" stroke-miterlimit="10" points="220.143,22.312 11.148,51.866 
		220.143,54.837 	"/>
	<polyline fill="none" stroke="#154CFF" stroke-width="0.5" stroke-miterlimit="10" points="220.143,22.312 11.478,88.716 
		220.143,54.837 	"/>
	<polyline fill="none" stroke="#154CFF" stroke-width="0.5" stroke-miterlimit="10" points="220.143,22.312 11.357,126.386 
		220.143,54.837 	"/>
	<polyline fill="none" stroke="#F42000" stroke-width="0.5" stroke-miterlimit="10" points="220.523,87.973 11.357,126.386 
		220.523,112.152 	"/>
	<polyline fill="none" stroke="#F42000" stroke-width="0.5" stroke-miterlimit="10" points="220.523,138.984 11.357,126.386 
		220.523,163.164 	"/>
	<polyline fill="none" stroke="#F42000" stroke-width="0.5" stroke-miterlimit="10" points="220.523,87.973 11.478,88.716 
		220.523,112.152 	"/>
	<polyline fill="none" stroke="#F42000" stroke-width="0.5" stroke-miterlimit="10" points="220.523,138.984 11.478,88.716 
		220.523,163.164 	"/>
	<polyline fill="none" stroke="#F42000" stroke-width="0.5" stroke-miterlimit="10" points="220.523,87.973 11.148,51.866 
		220.523,112.152 	"/>
	<polyline fill="none" stroke="#F42000" stroke-width="0.5" stroke-miterlimit="10" points="220.523,138.984 11.148,51.866 
		220.523,163.164 	"/>
</g>
<g id="Layer_1">
	<circle fill="#FFFFFF" stroke="#231F20" stroke-miterlimit="10" cx="11.25" cy="87.562" r="10.75"/>
	<circle fill="#FFFFFF" stroke="#231F20" stroke-miterlimit="10" cx="11.25" cy="51.812" r="10.75"/>
	<circle fill="#FFFFFF" stroke="#231F20" stroke-miterlimit="10" cx="220.143" cy="22.312" r="10.75"/>
	<circle fill="#FFFFFF" stroke="#231F20" stroke-miterlimit="10" cx="220.143" cy="54.837" r="10.75"/>
	<circle fill="#FFFFFF" stroke="#231F20" stroke-miterlimit="10" cx="11.25" cy="124.816" r="10.75"/>
	<g>
		<path d="M11.758,109.637c0,0.136-0.048,0.256-0.144,0.36c-0.097,0.096-0.217,0.151-0.36,0.151c-0.16,0-0.28-0.048-0.376-0.144
			s-0.136-0.216-0.136-0.368c0-0.144,0.048-0.264,0.151-0.352c0.104-0.097,0.225-0.145,0.36-0.145c0.128,0,0.248,0.048,0.352,0.145
			C11.702,109.373,11.758,109.493,11.758,109.637 M11.758,107.309c0,0.145-0.048,0.265-0.144,0.36
			c-0.097,0.104-0.217,0.152-0.36,0.152c-0.16,0-0.28-0.04-0.376-0.137c-0.096-0.096-0.136-0.216-0.136-0.376
			c0-0.144,0.048-0.264,0.151-0.359c0.104-0.097,0.225-0.145,0.36-0.145c0.128,0,0.248,0.048,0.352,0.145
			C11.702,107.045,11.758,107.165,11.758,107.309 M11.758,104.98c0,0.145-0.048,0.265-0.144,0.36
			c-0.097,0.104-0.217,0.152-0.36,0.152c-0.16,0-0.28-0.04-0.376-0.137c-0.096-0.096-0.136-0.216-0.136-0.376
			c0-0.144,0.048-0.264,0.151-0.359c0.104-0.097,0.225-0.145,0.36-0.145c0.128,0,0.248,0.048,0.352,0.145
			C11.702,104.717,11.758,104.837,11.758,104.98"/>
	</g>
	<g>
		<path fill="#007AFF" d="M220.65,40.973c0,0.136-0.047,0.256-0.143,0.36c-0.098,0.096-0.217,0.151-0.361,0.151
			c-0.16,0-0.279-0.048-0.375-0.144s-0.137-0.216-0.137-0.368c0-0.144,0.049-0.264,0.152-0.352c0.104-0.097,0.225-0.145,0.359-0.145
			c0.129,0,0.248,0.048,0.352,0.145C220.596,40.709,220.65,40.829,220.65,40.973 M220.65,38.645c0,0.145-0.047,0.265-0.143,0.36
			c-0.098,0.104-0.217,0.152-0.361,0.152c-0.16,0-0.279-0.04-0.375-0.137c-0.096-0.096-0.137-0.216-0.137-0.376
			c0-0.144,0.049-0.264,0.152-0.359c0.104-0.097,0.225-0.145,0.359-0.145c0.129,0,0.248,0.048,0.352,0.145
			C220.596,38.381,220.65,38.501,220.65,38.645 M220.65,36.316c0,0.145-0.047,0.265-0.143,0.36
			c-0.098,0.104-0.217,0.152-0.361,0.152c-0.16,0-0.279-0.04-0.375-0.137c-0.096-0.096-0.137-0.216-0.137-0.376
			c0-0.144,0.049-0.264,0.152-0.359c0.104-0.097,0.225-0.145,0.359-0.145c0.129,0,0.248,0.048,0.352,0.145
			C220.596,36.053,220.65,36.173,220.65,36.316"/>
	</g>
	<g>
		<path d="M8.626,119.821c-0.072,0-0.12-0.024-0.156-0.072c-0.048-0.048-0.06-0.096-0.06-0.168c0-0.061,0.012-0.12,0.06-0.168
			c0.036-0.048,0.084-0.072,0.156-0.072h4.248c-0.216-0.276-0.312-0.516-0.312-0.708c0-0.072,0.024-0.12,0.072-0.168
			s0.096-0.072,0.168-0.072c0.12,0,0.204,0.072,0.24,0.192c0.072,0.348,0.264,0.612,0.564,0.792c0.072,0.06,0.12,0.132,0.12,0.204
			c0,0.096-0.048,0.168-0.12,0.204c-0.456,0.228-0.816,0.527-1.092,0.899c-0.036,0.061-0.096,0.084-0.18,0.084
			c-0.072,0-0.12-0.023-0.168-0.071c-0.048-0.049-0.072-0.097-0.072-0.168c0-0.145,0.192-0.372,0.576-0.708H8.626"/>
		<path d="M7.709,126.194c0-0.168,0.012-0.36,0.06-0.576c0.048-0.216,0.096-0.42,0.156-0.588c0.048-0.168,0.144-0.42,0.276-0.78
			c0.132-0.348,0.204-0.54,0.216-0.576c0.096-0.288,0.156-0.528,0.156-0.72c0-0.24-0.096-0.36-0.264-0.36
			c-0.312,0-0.576,0.168-0.78,0.492c-0.216,0.336-0.36,0.696-0.456,1.092c-0.024,0.048-0.048,0.072-0.096,0.072H6.833
			c-0.072,0-0.096-0.036-0.096-0.108v-0.036c0.12-0.479,0.324-0.899,0.588-1.271c0.264-0.36,0.6-0.552,1.008-0.552
			c0.288,0,0.528,0.096,0.72,0.288c0.192,0.191,0.3,0.42,0.3,0.708c0,0.155-0.036,0.312-0.096,0.468
			c-0.096,0.24-0.216,0.54-0.336,0.876c-0.132,0.336-0.228,0.647-0.3,0.924c-0.072,0.288-0.096,0.552-0.096,0.804
			c0,0.312,0.072,0.576,0.24,0.769c0.168,0.191,0.408,0.288,0.72,0.288c0.42,0,0.768-0.324,1.056-0.973
			c-0.012-0.048-0.012-0.107-0.012-0.204c0-0.216,0.024-0.456,0.096-0.731l0.672-2.7c0.024-0.096,0.096-0.192,0.192-0.264
			c0.096-0.072,0.192-0.12,0.312-0.12c0.096,0,0.18,0.036,0.252,0.096c0.072,0.061,0.108,0.145,0.108,0.24
			c0,0.048-0.012,0.084-0.012,0.096l-0.672,2.676c-0.084,0.324-0.12,0.612-0.12,0.864c0,0.3,0.06,0.54,0.204,0.732
			c0.144,0.191,0.36,0.288,0.66,0.288c0.504,0,0.936-0.336,1.272-1.021c0.12-0.24,0.252-0.588,0.408-1.067
			c0.156-0.48,0.24-0.841,0.24-1.093c0-0.228-0.048-0.407-0.12-0.54c-0.072-0.132-0.18-0.275-0.3-0.432
			c-0.132-0.156-0.192-0.276-0.192-0.36c0-0.144,0.06-0.288,0.192-0.42c0.12-0.132,0.264-0.204,0.432-0.204
			c0.192,0,0.324,0.097,0.408,0.265c0.084,0.18,0.132,0.384,0.132,0.6c0,0.276-0.048,0.624-0.144,1.032
			c-0.096,0.42-0.204,0.84-0.336,1.26c-0.144,0.42-0.264,0.756-0.384,0.996c-0.444,0.864-0.984,1.284-1.632,1.284
			c-0.336,0-0.648-0.061-0.924-0.18c-0.276-0.12-0.48-0.324-0.612-0.612c-0.132,0.24-0.3,0.432-0.504,0.576
			c-0.216,0.144-0.444,0.216-0.696,0.216c-0.528,0-0.96-0.12-1.272-0.372C7.865,127.094,7.709,126.71,7.709,126.194"/>
		<path d="M15.437,130.496c0-0.034,0-0.059,0.008-0.076l1.218-4.854c0.017-0.093,0.034-0.168,0.042-0.228
			c0-0.084-0.185-0.134-0.546-0.134c-0.059,0-0.084-0.034-0.084-0.109c0-0.017,0-0.042,0.017-0.076
			c0.008-0.033,0.017-0.059,0.034-0.075c0.017-0.017,0.034-0.033,0.067-0.033l1.134-0.093h0.025c0,0.009,0.008,0.017,0.025,0.025
			c0.017,0.017,0.034,0.017,0.034,0.017c0.008,0.033,0.017,0.051,0.017,0.067l-0.882,3.511c0.202-0.084,0.454-0.285,0.765-0.604
			c0.302-0.319,0.546-0.546,0.722-0.688c0.168-0.135,0.386-0.21,0.655-0.21c0.151,0,0.286,0.059,0.395,0.159
			c0.109,0.109,0.168,0.244,0.168,0.395c0,0.102-0.025,0.193-0.067,0.277s-0.101,0.151-0.168,0.202
			c-0.076,0.05-0.16,0.075-0.261,0.075c-0.092,0-0.168-0.025-0.227-0.084c-0.067-0.051-0.092-0.126-0.092-0.219
			c0-0.134,0.042-0.243,0.143-0.336c0.092-0.092,0.21-0.143,0.345-0.143c-0.059-0.067-0.143-0.109-0.252-0.109
			c-0.168,0-0.336,0.051-0.487,0.144c-0.151,0.101-0.319,0.234-0.496,0.411c-0.185,0.185-0.345,0.345-0.496,0.495
			c-0.151,0.151-0.286,0.261-0.403,0.337c0.328,0.042,0.613,0.126,0.857,0.26c0.244,0.135,0.37,0.345,0.37,0.622
			c0,0.059-0.017,0.134-0.034,0.218c-0.05,0.21-0.076,0.378-0.076,0.504c0,0.253,0.084,0.379,0.26,0.379
			c0.202,0,0.353-0.109,0.462-0.328c0.101-0.219,0.193-0.479,0.261-0.781c0.008-0.033,0.034-0.05,0.067-0.05h0.101
			c0.017,0,0.034,0.008,0.05,0.024c0.017,0.018,0.025,0.034,0.025,0.051c0,0.009-0.009,0.017-0.009,0.025
			c-0.21,0.849-0.538,1.269-0.974,1.269c-0.16,0-0.302-0.034-0.42-0.102c-0.126-0.066-0.219-0.168-0.286-0.302
			c-0.067-0.126-0.092-0.27-0.092-0.429c0-0.084,0.008-0.177,0.033-0.277c0.017-0.067,0.025-0.126,0.025-0.185
			c0-0.219-0.101-0.378-0.286-0.496c-0.193-0.108-0.412-0.176-0.655-0.201l-0.428,1.714c-0.025,0.084-0.067,0.151-0.126,0.201
			c-0.067,0.051-0.134,0.076-0.218,0.076c-0.076,0-0.135-0.025-0.185-0.067S15.437,130.563,15.437,130.496"/>
	</g>
	<g>
		<path d="M8.626,83.015c-0.072,0-0.12-0.024-0.156-0.072c-0.048-0.048-0.06-0.096-0.06-0.168c0-0.06,0.012-0.12,0.06-0.168
			c0.036-0.048,0.084-0.072,0.156-0.072h4.248c-0.216-0.276-0.312-0.516-0.312-0.708c0-0.072,0.024-0.12,0.072-0.168
			c0.048-0.048,0.096-0.072,0.168-0.072c0.12,0,0.204,0.072,0.24,0.192c0.072,0.348,0.264,0.612,0.564,0.792
			c0.072,0.06,0.12,0.132,0.12,0.204c0,0.096-0.048,0.168-0.12,0.204c-0.456,0.228-0.816,0.528-1.092,0.9
			c-0.036,0.06-0.096,0.084-0.18,0.084c-0.072,0-0.12-0.024-0.168-0.072c-0.048-0.048-0.072-0.096-0.072-0.168
			c0-0.144,0.192-0.372,0.576-0.708H8.626"/>
		<path d="M7.709,89.388c0-0.168,0.012-0.36,0.06-0.576c0.048-0.216,0.096-0.42,0.156-0.588c0.048-0.168,0.144-0.42,0.276-0.78
			c0.132-0.348,0.204-0.54,0.216-0.576c0.096-0.288,0.156-0.528,0.156-0.72c0-0.24-0.096-0.36-0.264-0.36
			c-0.312,0-0.576,0.168-0.78,0.492c-0.216,0.336-0.36,0.696-0.456,1.092c-0.024,0.048-0.048,0.072-0.096,0.072H6.833
			c-0.072,0-0.096-0.036-0.096-0.108V87.3c0.12-0.48,0.324-0.9,0.588-1.272c0.264-0.36,0.6-0.552,1.008-0.552
			c0.288,0,0.528,0.096,0.72,0.288c0.192,0.192,0.3,0.42,0.3,0.708c0,0.156-0.036,0.312-0.096,0.468
			c-0.096,0.24-0.216,0.54-0.336,0.876c-0.132,0.336-0.228,0.648-0.3,0.924c-0.072,0.288-0.096,0.552-0.096,0.804
			c0,0.312,0.072,0.576,0.24,0.768S9.173,90.6,9.485,90.6c0.42,0,0.768-0.324,1.056-0.972c-0.012-0.048-0.012-0.108-0.012-0.204
			c0-0.216,0.024-0.456,0.096-0.732l0.672-2.7c0.024-0.096,0.096-0.192,0.192-0.264c0.096-0.072,0.192-0.12,0.312-0.12
			c0.096,0,0.18,0.036,0.252,0.096c0.072,0.06,0.108,0.144,0.108,0.24c0,0.048-0.012,0.084-0.012,0.096l-0.672,2.676
			c-0.084,0.324-0.12,0.612-0.12,0.864c0,0.3,0.06,0.54,0.204,0.732c0.144,0.192,0.36,0.288,0.66,0.288
			c0.504,0,0.936-0.336,1.272-1.02c0.12-0.24,0.252-0.588,0.408-1.068c0.156-0.48,0.24-0.84,0.24-1.092
			c0-0.228-0.048-0.408-0.12-0.54c-0.072-0.132-0.18-0.276-0.3-0.432c-0.132-0.156-0.192-0.276-0.192-0.36
			c0-0.144,0.06-0.288,0.192-0.42c0.12-0.132,0.264-0.204,0.432-0.204c0.192,0,0.324,0.096,0.408,0.264
			c0.084,0.18,0.132,0.384,0.132,0.6c0,0.276-0.048,0.624-0.144,1.032c-0.096,0.42-0.204,0.84-0.336,1.26
			c-0.144,0.42-0.264,0.756-0.384,0.996c-0.444,0.864-0.984,1.284-1.632,1.284c-0.336,0-0.648-0.06-0.924-0.18
			c-0.276-0.12-0.48-0.324-0.612-0.612c-0.132,0.24-0.3,0.432-0.504,0.576C9.941,90.828,9.713,90.9,9.461,90.9
			c-0.528,0-0.96-0.12-1.272-0.372C7.865,90.288,7.709,89.904,7.709,89.388"/>
		<path d="M15.772,93.841v-0.294c0.697,0,1.05-0.084,1.05-0.269v-4.41c-0.294,0.143-0.664,0.21-1.101,0.21v-0.294
			c0.681,0,1.201-0.176,1.554-0.538h0.118c0.017,0,0.042,0.008,0.059,0.025c0.017,0.017,0.025,0.034,0.025,0.05v4.956
			c0,0.185,0.344,0.269,1.05,0.269v0.294H15.772"/>
	</g>
	<g>
		<path d="M7.008,55.91c-0.084,0-0.12-0.048-0.12-0.156c0-0.024,0.012-0.06,0.024-0.108c0.012-0.048,0.024-0.084,0.048-0.108
			c0.024-0.024,0.048-0.048,0.084-0.048c0.48,0,0.828-0.024,1.02-0.084c0.096-0.024,0.18-0.132,0.228-0.324l1.644-6.588
			c0.012-0.072,0.024-0.132,0.024-0.168c0-0.084-0.048-0.132-0.144-0.144c-0.156-0.024-0.444-0.048-0.864-0.048
			c-0.084,0-0.12-0.048-0.12-0.156c0-0.024,0.012-0.06,0.024-0.108c0.012-0.048,0.024-0.084,0.048-0.108
			c0.024-0.024,0.048-0.048,0.084-0.048h6.504c0.072,0,0.12,0.06,0.12,0.156l-0.288,2.484c0,0.024-0.024,0.048-0.048,0.072
			c-0.024,0.024-0.048,0.036-0.072,0.036h-0.108c-0.084,0-0.12-0.048-0.12-0.156c0.048-0.384,0.072-0.672,0.072-0.864
			c0-0.312-0.06-0.564-0.168-0.744c-0.12-0.18-0.264-0.312-0.444-0.384c-0.18-0.072-0.384-0.12-0.6-0.144
			c-0.216-0.024-0.504-0.036-0.864-0.036h-1.368c-0.216,0-0.36,0.024-0.432,0.06c-0.072,0.036-0.144,0.156-0.192,0.348l-0.72,2.904
			h0.936c0.408,0,0.708-0.024,0.924-0.084c0.204-0.048,0.372-0.168,0.492-0.348c0.12-0.18,0.228-0.468,0.324-0.864
			c0-0.024,0.012-0.048,0.036-0.072s0.048-0.036,0.084-0.036h0.108c0.072,0,0.12,0.06,0.12,0.156l-0.744,2.964
			c-0.024,0.072-0.06,0.108-0.12,0.108h-0.108c-0.084,0-0.12-0.048-0.12-0.156c0.072-0.312,0.12-0.552,0.12-0.708
			c0-0.228-0.108-0.372-0.324-0.444c-0.216-0.06-0.492-0.096-0.84-0.096h-0.996L9.336,55.13c-0.036,0.096-0.048,0.192-0.048,0.264
			c0,0.072,0.132,0.096,0.408,0.096h1.452c0.576,0,1.044-0.036,1.404-0.132c0.36-0.096,0.648-0.24,0.888-0.432
			c0.24-0.192,0.444-0.444,0.612-0.756c0.168-0.3,0.384-0.744,0.636-1.332c0.012-0.048,0.048-0.072,0.108-0.072h0.108
			c0.024,0,0.06,0.024,0.084,0.048c0.024,0.024,0.036,0.06,0.036,0.084s-0.012,0.036-0.012,0.048l-1.236,2.892
			c-0.024,0.048-0.048,0.072-0.096,0.072H7.008"/>
	</g>
	<g>
		<g>
			<polyline fill="none" stroke="#007AFF" stroke-width="0.5" stroke-miterlimit="10" points="234.948,67.463 234.948,67.963 
				234.448,67.963 			"/>
			
				<line fill="none" stroke="#007AFF" stroke-width="0.5" stroke-miterlimit="10" stroke-dasharray="0.9688,0.9688" x1="233.479" y1="67.963" x2="206.838" y2="67.963"/>
			<polyline fill="none" stroke="#007AFF" stroke-width="0.5" stroke-miterlimit="10" points="206.354,67.963 205.854,67.963 
				205.854,67.463 			"/>
			
				<line fill="none" stroke="#007AFF" stroke-width="0.5" stroke-miterlimit="10" stroke-dasharray="0.9898,0.9898" x1="205.854" y1="66.473" x2="205.854" y2="9.558"/>
			<polyline fill="none" stroke="#007AFF" stroke-width="0.5" stroke-miterlimit="10" points="205.854,9.062 205.854,8.562 
				206.354,8.562 			"/>
			
				<line fill="none" stroke="#007AFF" stroke-width="0.5" stroke-miterlimit="10" stroke-dasharray="0.9688,0.9688" x1="207.322" y1="8.562" x2="233.964" y2="8.562"/>
			<polyline fill="none" stroke="#007AFF" stroke-width="0.5" stroke-miterlimit="10" points="234.448,8.562 234.948,8.562 
				234.948,9.062 			"/>
			
				<line fill="none" stroke="#007AFF" stroke-width="0.5" stroke-miterlimit="10" stroke-dasharray="0.9898,0.9898" x1="234.948" y1="10.052" x2="234.948" y2="66.968"/>
		</g>
	</g>
	<circle fill="#FFFFFF" stroke="#231F20" stroke-miterlimit="10" cx="220.523" cy="112.152" r="4.16"/>
	<circle fill="#FFFFFF" stroke="#231F20" stroke-miterlimit="10" cx="220.523" cy="87.973" r="4.16"/>
	<g>
		<path d="M221.031,102.051c0,0.137-0.047,0.256-0.143,0.361c-0.098,0.096-0.217,0.15-0.361,0.15c-0.16,0-0.279-0.047-0.375-0.143
			s-0.137-0.217-0.137-0.369c0-0.143,0.049-0.264,0.152-0.352c0.104-0.096,0.225-0.145,0.359-0.145c0.129,0,0.248,0.049,0.352,0.145
			C220.977,101.787,221.031,101.908,221.031,102.051 M221.031,99.723c0,0.145-0.047,0.266-0.143,0.361
			c-0.098,0.104-0.217,0.152-0.361,0.152c-0.16,0-0.279-0.041-0.375-0.137s-0.137-0.217-0.137-0.377
			c0-0.143,0.049-0.264,0.152-0.359s0.225-0.145,0.359-0.145c0.129,0,0.248,0.049,0.352,0.145
			C220.977,99.459,221.031,99.58,221.031,99.723 M221.031,97.395c0,0.145-0.047,0.266-0.143,0.361
			c-0.098,0.104-0.217,0.152-0.361,0.152c-0.16,0-0.279-0.041-0.375-0.137s-0.137-0.217-0.137-0.377
			c0-0.143,0.049-0.264,0.152-0.359s0.225-0.145,0.359-0.145c0.129,0,0.248,0.049,0.352,0.145
			C220.977,97.131,221.031,97.252,221.031,97.395"/>
	</g>
	<g>
		<g>
			<polyline fill="none" stroke="#ED1C24" stroke-width="0.5" stroke-miterlimit="10" points="234.948,171.479 234.948,171.979 
				234.448,171.979 			"/>
			
				<line fill="none" stroke="#ED1C24" stroke-width="0.5" stroke-miterlimit="10" stroke-dasharray="0.9688,0.9688" x1="233.479" y1="171.979" x2="206.838" y2="171.979"/>
			<polyline fill="none" stroke="#ED1C24" stroke-width="0.5" stroke-miterlimit="10" points="206.354,171.979 205.854,171.979 
				205.854,171.479 			"/>
			
				<line fill="none" stroke="#ED1C24" stroke-width="0.5" stroke-miterlimit="10" stroke-dasharray="0.9972,0.9972" x1="205.854" y1="170.482" x2="205.854" y2="79.234"/>
			<polyline fill="none" stroke="#ED1C24" stroke-width="0.5" stroke-miterlimit="10" points="205.854,78.735 205.854,78.235 
				206.354,78.235 			"/>
			
				<line fill="none" stroke="#ED1C24" stroke-width="0.5" stroke-miterlimit="10" stroke-dasharray="0.9688,0.9688" x1="207.322" y1="78.235" x2="233.964" y2="78.235"/>
			<polyline fill="none" stroke="#ED1C24" stroke-width="0.5" stroke-miterlimit="10" points="234.448,78.235 234.948,78.235 
				234.948,78.735 			"/>
			
				<line fill="none" stroke="#ED1C24" stroke-width="0.5" stroke-miterlimit="10" stroke-dasharray="0.9972,0.9972" x1="234.948" y1="79.732" x2="234.948" y2="170.98"/>
		</g>
	</g>
	
		<rect x="212.559" y="79.648" fill="none" stroke="#231F20" stroke-width="0.5" stroke-miterlimit="10" width="16.285" height="38.608"/>
	<circle fill="#FFFFFF" stroke="#231F20" stroke-miterlimit="10" cx="220.523" cy="163.164" r="4.16"/>
	<circle fill="#FFFFFF" stroke="#231F20" stroke-miterlimit="10" cx="220.523" cy="138.984" r="4.16"/>
	<g>
		<path d="M221.031,153.062c0,0.137-0.047,0.256-0.143,0.361c-0.098,0.096-0.217,0.15-0.361,0.15c-0.16,0-0.279-0.047-0.375-0.143
			s-0.137-0.217-0.137-0.369c0-0.143,0.049-0.264,0.152-0.352c0.104-0.096,0.225-0.145,0.359-0.145c0.129,0,0.248,0.049,0.352,0.145
			C220.977,152.799,221.031,152.92,221.031,153.062 M221.031,150.734c0,0.145-0.047,0.266-0.143,0.361
			c-0.098,0.104-0.217,0.152-0.361,0.152c-0.16,0-0.279-0.041-0.375-0.137s-0.137-0.217-0.137-0.377
			c0-0.143,0.049-0.264,0.152-0.359s0.225-0.145,0.359-0.145c0.129,0,0.248,0.049,0.352,0.145
			C220.977,150.471,221.031,150.592,221.031,150.734 M221.031,148.406c0,0.145-0.047,0.266-0.143,0.361
			c-0.098,0.104-0.217,0.152-0.361,0.152c-0.16,0-0.279-0.041-0.375-0.137s-0.137-0.217-0.137-0.377
			c0-0.143,0.049-0.264,0.152-0.359s0.225-0.145,0.359-0.145c0.129,0,0.248,0.049,0.352,0.145
			C220.977,148.143,221.031,148.264,221.031,148.406"/>
	</g>
	
		<rect x="212.559" y="130.66" fill="none" stroke="#231F20" stroke-width="0.5" stroke-miterlimit="10" width="16.285" height="38.607"/>
	<g>
		<path fill="#ED1C24" d="M220.523,128.062c0,0.135-0.047,0.256-0.143,0.359c-0.098,0.096-0.217,0.152-0.361,0.152
			c-0.16,0-0.279-0.049-0.375-0.145s-0.137-0.215-0.137-0.367c0-0.145,0.049-0.264,0.152-0.352c0.104-0.098,0.225-0.145,0.359-0.145
			c0.129,0,0.248,0.047,0.352,0.145C220.469,127.799,220.523,127.918,220.523,128.062 M220.523,125.734
			c0,0.145-0.047,0.264-0.143,0.359c-0.098,0.104-0.217,0.152-0.361,0.152c-0.16,0-0.279-0.039-0.375-0.137
			c-0.096-0.096-0.137-0.215-0.137-0.375c0-0.145,0.049-0.264,0.152-0.359c0.104-0.098,0.225-0.145,0.359-0.145
			c0.129,0,0.248,0.047,0.352,0.145C220.469,125.471,220.523,125.59,220.523,125.734 M220.523,123.406
			c0,0.145-0.047,0.264-0.143,0.359c-0.098,0.105-0.217,0.152-0.361,0.152c-0.16,0-0.279-0.039-0.375-0.137
			c-0.096-0.096-0.137-0.215-0.137-0.375c0-0.145,0.049-0.264,0.152-0.359c0.104-0.098,0.225-0.145,0.359-0.145
			c0.129,0,0.248,0.047,0.352,0.145C220.469,123.143,220.523,123.262,220.523,123.406"/>
	</g>
	<g>
		<path d="M215.67,54.488c0,0.348,0.084,0.648,0.264,0.888c0.18,0.24,0.432,0.36,0.768,0.36c0.48,0,0.936-0.108,1.381-0.324
			c0.432-0.216,0.791-0.528,1.068-0.912c0.023-0.024,0.047-0.036,0.096-0.036c0.035,0,0.072,0.024,0.119,0.072
			c0.037,0.048,0.061,0.084,0.061,0.12s-0.012,0.06-0.023,0.072c-0.289,0.408-0.686,0.732-1.178,0.96
			c-0.504,0.228-1.02,0.348-1.547,0.348c-0.385,0-0.732-0.096-1.02-0.264c-0.289-0.168-0.518-0.408-0.672-0.72
			c-0.168-0.3-0.24-0.648-0.24-1.032c0-0.54,0.143-1.08,0.443-1.608c0.301-0.528,0.695-0.96,1.199-1.296s1.033-0.504,1.584-0.504
			c0.361,0,0.686,0.096,0.973,0.264c0.289,0.18,0.432,0.432,0.432,0.768c0,0.216-0.072,0.408-0.191,0.564
			c-0.133,0.156-0.301,0.228-0.516,0.228c-0.133,0-0.24-0.036-0.324-0.12c-0.096-0.072-0.133-0.18-0.133-0.312
			c0-0.192,0.061-0.348,0.205-0.48c0.131-0.132,0.287-0.204,0.48-0.204h0.023c-0.096-0.132-0.24-0.228-0.408-0.3
			c-0.18-0.06-0.359-0.096-0.553-0.096c-0.467,0-0.875,0.204-1.223,0.6c-0.361,0.408-0.625,0.888-0.805,1.44
			C215.754,53.516,215.67,54.032,215.67,54.488"/>
		<path d="M220.098,58.834c0-0.034,0-0.059,0.008-0.076l0.631-2.503c0.033-0.151,0.059-0.294,0.059-0.412
			c0-0.235-0.084-0.361-0.244-0.361c-0.176,0-0.311,0.109-0.395,0.319s-0.168,0.47-0.244,0.79c0,0.017-0.008,0.034-0.023,0.042
			c-0.018,0.008-0.035,0.008-0.043,0.008h-0.102c-0.016,0-0.033-0.008-0.049-0.025c-0.018-0.017-0.018-0.042-0.018-0.059
			c0.059-0.244,0.117-0.454,0.176-0.622c0.051-0.168,0.143-0.319,0.262-0.462c0.117-0.134,0.26-0.21,0.445-0.21
			c0.201,0,0.385,0.067,0.553,0.202c0.16,0.134,0.244,0.302,0.244,0.504c0.168-0.218,0.361-0.386,0.588-0.512
			c0.219-0.126,0.463-0.193,0.715-0.193c0.26,0,0.486,0.067,0.68,0.202s0.295,0.328,0.295,0.58c0.168-0.244,0.369-0.437,0.604-0.571
			c0.229-0.134,0.48-0.21,0.756-0.21c0.287,0,0.521,0.084,0.697,0.235c0.178,0.159,0.27,0.386,0.27,0.672
			c0,0.235-0.059,0.512-0.16,0.832c-0.1,0.328-0.227,0.689-0.377,1.092c-0.084,0.202-0.117,0.37-0.117,0.504
			c0,0.168,0.059,0.252,0.193,0.252c0.217,0,0.395-0.118,0.545-0.353c0.143-0.235,0.244-0.487,0.311-0.756
			c0.018-0.034,0.033-0.05,0.068-0.05h0.1c0.018,0,0.033,0.008,0.051,0.025c0.018,0.017,0.025,0.034,0.025,0.05
			c0,0.009-0.008,0.017-0.008,0.025c-0.084,0.319-0.219,0.613-0.404,0.874c-0.184,0.269-0.42,0.395-0.705,0.395
			c-0.201,0-0.369-0.067-0.504-0.193c-0.143-0.134-0.211-0.294-0.211-0.496c0-0.092,0.018-0.202,0.068-0.328
			c0.15-0.42,0.285-0.79,0.395-1.125c0.1-0.328,0.16-0.622,0.16-0.874c0-0.151-0.035-0.286-0.094-0.395
			c-0.066-0.109-0.168-0.168-0.318-0.168c-0.303,0-0.572,0.101-0.799,0.286c-0.227,0.185-0.42,0.437-0.578,0.739
			c-0.018,0.059-0.025,0.101-0.025,0.126l-0.539,2.159c-0.025,0.084-0.066,0.143-0.133,0.193c-0.068,0.05-0.145,0.076-0.219,0.076
			c-0.068,0-0.127-0.025-0.178-0.059c-0.049-0.034-0.074-0.092-0.074-0.168c0-0.034,0-0.059,0.008-0.076l0.537-2.142
			c0.051-0.227,0.084-0.42,0.084-0.571c0-0.151-0.033-0.286-0.1-0.395c-0.068-0.109-0.168-0.168-0.32-0.168
			c-0.209,0-0.402,0.05-0.57,0.134c-0.168,0.093-0.32,0.21-0.445,0.361c-0.135,0.151-0.252,0.328-0.354,0.529l-0.57,2.285
			c-0.018,0.084-0.059,0.143-0.127,0.193c-0.066,0.05-0.143,0.076-0.227,0.076c-0.066,0-0.125-0.025-0.176-0.059
			S220.098,58.91,220.098,58.834"/>
	</g>
	<g>
		<path d="M216.945,22.006c0,0.348,0.084,0.648,0.264,0.888c0.182,0.24,0.434,0.36,0.77,0.36c0.479,0,0.936-0.108,1.379-0.324
			c0.432-0.216,0.793-0.528,1.068-0.912c0.023-0.024,0.049-0.036,0.096-0.036c0.037,0,0.072,0.024,0.121,0.072
			c0.035,0.048,0.059,0.084,0.059,0.12s-0.012,0.06-0.023,0.072c-0.287,0.408-0.684,0.732-1.176,0.96
			c-0.504,0.228-1.02,0.348-1.549,0.348c-0.383,0-0.73-0.096-1.02-0.264c-0.287-0.168-0.516-0.408-0.672-0.72
			c-0.168-0.3-0.24-0.648-0.24-1.032c0-0.54,0.145-1.08,0.445-1.608c0.299-0.528,0.695-0.96,1.199-1.296s1.031-0.504,1.584-0.504
			c0.359,0,0.684,0.096,0.973,0.264c0.287,0.18,0.432,0.432,0.432,0.768c0,0.216-0.072,0.408-0.193,0.564
			c-0.131,0.156-0.299,0.228-0.516,0.228c-0.131,0-0.24-0.036-0.324-0.12c-0.096-0.072-0.131-0.18-0.131-0.312
			c0-0.192,0.061-0.348,0.203-0.48c0.133-0.132,0.289-0.204,0.48-0.204h0.023c-0.096-0.132-0.24-0.228-0.408-0.3
			c-0.18-0.06-0.359-0.096-0.551-0.096c-0.469,0-0.877,0.204-1.225,0.6c-0.359,0.408-0.623,0.888-0.805,1.44
			C217.029,21.034,216.945,21.55,216.945,22.006"/>
		<path d="M221.508,26.495v-0.294c0.697,0,1.051-0.084,1.051-0.269v-4.41c-0.295,0.143-0.664,0.21-1.1,0.21v-0.294
			c0.68,0,1.201-0.176,1.553-0.538h0.117c0.018,0,0.043,0.009,0.061,0.025c0.016,0.017,0.023,0.034,0.023,0.05v4.956
			c0,0.185,0.346,0.269,1.051,0.269v0.294H221.508"/>
	</g>
	<g>
		<text transform="matrix(1 0 0 1 208.3926 6.1099)" font-family="'Times-Roman'" font-size="7.3526">Sigmoid</text>
	</g>
	<g>
		<text transform="matrix(1 0 0 1 208.3936 76.0615)" font-family="'Times-Roman'" font-size="7.3526">Softmax</text>
	</g>
	<g>
		<path d="M236.285,91.855c-0.072,0-0.119-0.023-0.156-0.07c-0.047-0.049-0.059-0.098-0.059-0.168c0-0.061,0.012-0.121,0.059-0.168
			c0.037-0.049,0.084-0.072,0.156-0.072h4.248c-0.215-0.277-0.312-0.518-0.312-0.709c0-0.072,0.025-0.119,0.072-0.168
			c0.049-0.047,0.096-0.072,0.168-0.072c0.121,0,0.205,0.072,0.24,0.193c0.072,0.348,0.264,0.611,0.564,0.791
			c0.072,0.061,0.119,0.133,0.119,0.205c0,0.096-0.047,0.168-0.119,0.203c-0.455,0.229-0.816,0.527-1.092,0.9
			c-0.037,0.061-0.096,0.084-0.18,0.084c-0.072,0-0.121-0.023-0.168-0.072c-0.049-0.049-0.072-0.096-0.072-0.168
			c0-0.145,0.191-0.373,0.576-0.709H236.285"/>
		<path d="M237.477,98.178c0,0.348,0.084,0.648,0.264,0.889c0.182,0.238,0.434,0.359,0.77,0.359c0.479,0,0.936-0.107,1.379-0.324
			c0.432-0.217,0.793-0.527,1.068-0.912c0.023-0.023,0.049-0.035,0.096-0.035c0.037,0,0.072,0.023,0.121,0.072
			c0.035,0.047,0.059,0.084,0.059,0.119s-0.012,0.061-0.023,0.072c-0.287,0.408-0.684,0.732-1.176,0.959
			c-0.504,0.229-1.02,0.35-1.549,0.35c-0.383,0-0.73-0.098-1.02-0.266c-0.287-0.168-0.516-0.408-0.672-0.719
			c-0.168-0.301-0.24-0.648-0.24-1.033c0-0.539,0.145-1.08,0.445-1.607c0.299-0.527,0.695-0.959,1.199-1.297
			c0.504-0.336,1.031-0.504,1.584-0.504c0.359,0,0.684,0.098,0.973,0.266c0.287,0.18,0.432,0.432,0.432,0.768
			c0,0.215-0.072,0.408-0.193,0.564c-0.131,0.154-0.299,0.227-0.516,0.227c-0.131,0-0.24-0.035-0.324-0.119
			c-0.096-0.072-0.131-0.18-0.131-0.312c0-0.191,0.061-0.348,0.203-0.48c0.133-0.131,0.289-0.203,0.48-0.203h0.023
			c-0.096-0.133-0.24-0.229-0.408-0.301c-0.18-0.059-0.359-0.096-0.551-0.096c-0.469,0-0.877,0.205-1.225,0.6
			c-0.359,0.408-0.623,0.889-0.805,1.441C237.561,97.205,237.477,97.721,237.477,98.178"/>
		<path d="M241.906,102.523c0-0.033,0-0.059,0.008-0.074l0.629-2.504c0.035-0.15,0.061-0.295,0.061-0.412
			c0-0.234-0.084-0.361-0.244-0.361c-0.176,0-0.311,0.109-0.395,0.32c-0.084,0.209-0.168,0.471-0.244,0.789
			c0,0.018-0.008,0.033-0.025,0.041c-0.018,0.01-0.033,0.01-0.041,0.01h-0.102c-0.018,0-0.033-0.01-0.051-0.025
			c-0.016-0.018-0.016-0.043-0.016-0.059c0.059-0.244,0.117-0.453,0.176-0.621c0.051-0.17,0.143-0.32,0.26-0.463
			c0.117-0.135,0.262-0.211,0.445-0.211c0.201,0,0.387,0.068,0.555,0.203c0.16,0.133,0.244,0.301,0.244,0.504
			c0.168-0.219,0.361-0.387,0.588-0.514c0.219-0.125,0.461-0.193,0.713-0.193c0.262,0,0.488,0.068,0.682,0.203
			c0.193,0.133,0.293,0.326,0.293,0.578c0.168-0.242,0.369-0.436,0.605-0.57c0.227-0.135,0.479-0.211,0.756-0.211
			c0.285,0,0.521,0.084,0.697,0.236c0.176,0.16,0.27,0.387,0.27,0.672c0,0.234-0.061,0.512-0.16,0.832
			c-0.102,0.326-0.227,0.688-0.379,1.092c-0.084,0.201-0.117,0.369-0.117,0.504c0,0.168,0.059,0.252,0.193,0.252
			c0.219,0,0.395-0.117,0.547-0.354c0.143-0.234,0.242-0.486,0.311-0.756c0.016-0.033,0.033-0.051,0.066-0.051h0.102
			c0.016,0,0.033,0.01,0.051,0.025c0.016,0.018,0.023,0.033,0.023,0.051c0,0.008-0.008,0.018-0.008,0.025
			c-0.084,0.318-0.219,0.613-0.402,0.873c-0.186,0.27-0.42,0.395-0.707,0.395c-0.201,0-0.369-0.066-0.504-0.193
			c-0.143-0.133-0.209-0.293-0.209-0.494c0-0.094,0.016-0.201,0.066-0.328c0.152-0.42,0.285-0.789,0.395-1.125
			c0.102-0.328,0.16-0.623,0.16-0.875c0-0.15-0.033-0.285-0.092-0.395c-0.068-0.109-0.168-0.168-0.32-0.168
			c-0.301,0-0.57,0.102-0.797,0.285c-0.227,0.186-0.42,0.438-0.58,0.74c-0.018,0.059-0.025,0.102-0.025,0.125l-0.537,2.16
			c-0.025,0.084-0.068,0.143-0.135,0.193s-0.143,0.074-0.219,0.074c-0.066,0-0.125-0.023-0.176-0.059
			c-0.051-0.033-0.076-0.092-0.076-0.168c0-0.033,0-0.059,0.01-0.074l0.537-2.143c0.051-0.227,0.084-0.42,0.084-0.572
			c0-0.15-0.033-0.285-0.102-0.395c-0.066-0.109-0.168-0.168-0.318-0.168c-0.211,0-0.404,0.051-0.572,0.135
			c-0.168,0.092-0.318,0.211-0.445,0.361c-0.133,0.15-0.252,0.328-0.352,0.529l-0.572,2.285c-0.016,0.084-0.059,0.143-0.125,0.193
			c-0.068,0.051-0.143,0.074-0.227,0.074c-0.068,0-0.127-0.023-0.178-0.059C241.932,102.658,241.906,102.6,241.906,102.523"/>
		<path d="M250.738,100.734c-0.051,0-0.084-0.016-0.117-0.051c-0.033-0.033-0.043-0.074-0.043-0.117c0-0.033,0.01-0.076,0.043-0.109
			s0.066-0.059,0.117-0.059h2.469V97.92c0-0.041,0.018-0.074,0.051-0.107c0.033-0.025,0.068-0.043,0.117-0.043
			c0.035,0,0.076,0.018,0.109,0.043c0.035,0.033,0.059,0.066,0.059,0.107v2.479h2.471c0.033,0,0.066,0.025,0.1,0.059
			c0.035,0.033,0.051,0.076,0.051,0.109c0,0.043-0.016,0.084-0.051,0.117c-0.033,0.035-0.066,0.051-0.1,0.051h-2.471v2.471
			c0,0.041-0.023,0.074-0.059,0.109c-0.033,0.023-0.074,0.041-0.109,0.041c-0.049,0-0.084-0.018-0.117-0.041
			c-0.033-0.035-0.051-0.068-0.051-0.109v-2.471H250.738"/>
		<path d="M257.943,102.666v-0.293c0.695,0,1.049-0.084,1.049-0.27v-4.41c-0.293,0.143-0.664,0.211-1.1,0.211v-0.295
			c0.68,0,1.201-0.176,1.553-0.537h0.119c0.016,0,0.041,0.008,0.059,0.025c0.016,0.018,0.025,0.033,0.025,0.051v4.955
			c0,0.186,0.344,0.27,1.049,0.27v0.293H257.943"/>
	</g>
	<g>
		<path d="M237.814,145.701c-0.072,0-0.12-0.023-0.156-0.072c-0.048-0.049-0.06-0.096-0.06-0.168c0-0.061,0.012-0.119,0.06-0.168
			c0.036-0.049,0.084-0.072,0.156-0.072h4.248c-0.215-0.275-0.312-0.516-0.312-0.707c0-0.072,0.025-0.121,0.072-0.168
			c0.049-0.049,0.096-0.072,0.168-0.072c0.121,0,0.205,0.072,0.24,0.191c0.072,0.348,0.264,0.611,0.564,0.793
			c0.072,0.059,0.119,0.131,0.119,0.203c0,0.096-0.047,0.168-0.119,0.203c-0.455,0.229-0.816,0.529-1.092,0.9
			c-0.037,0.061-0.096,0.084-0.18,0.084c-0.072,0-0.121-0.023-0.168-0.072c-0.049-0.047-0.072-0.096-0.072-0.168
			c0-0.143,0.191-0.371,0.576-0.707H237.814"/>
		<path d="M239.006,152.021c0,0.35,0.084,0.648,0.264,0.889c0.181,0.24,0.433,0.359,0.77,0.359c0.479,0,0.936-0.107,1.379-0.322
			c0.432-0.217,0.793-0.529,1.068-0.912c0.023-0.025,0.049-0.037,0.096-0.037c0.037,0,0.072,0.023,0.121,0.072
			c0.035,0.049,0.059,0.084,0.059,0.119c0,0.037-0.012,0.061-0.023,0.072c-0.287,0.408-0.684,0.732-1.176,0.961
			c-0.504,0.229-1.02,0.348-1.549,0.348c-0.384,0-0.731-0.096-1.02-0.264s-0.517-0.408-0.672-0.721
			c-0.168-0.299-0.24-0.648-0.24-1.031c0-0.541,0.144-1.08,0.444-1.607c0.3-0.529,0.695-0.961,1.199-1.297
			c0.505-0.336,1.032-0.504,1.585-0.504c0.359,0,0.684,0.096,0.973,0.264c0.287,0.18,0.432,0.432,0.432,0.768
			c0,0.217-0.072,0.408-0.193,0.564c-0.131,0.156-0.299,0.229-0.516,0.229c-0.131,0-0.24-0.037-0.324-0.121
			c-0.096-0.07-0.131-0.18-0.131-0.311c0-0.193,0.061-0.35,0.203-0.48c0.133-0.133,0.289-0.205,0.48-0.205h0.023
			c-0.096-0.131-0.24-0.227-0.408-0.299c-0.18-0.061-0.359-0.096-0.551-0.096c-0.469,0-0.877,0.203-1.225,0.6
			c-0.36,0.408-0.624,0.889-0.805,1.439C239.09,151.051,239.006,151.566,239.006,152.021"/>
		<path d="M243.436,156.369c0-0.033,0-0.059,0.008-0.076l0.629-2.504c0.035-0.15,0.061-0.293,0.061-0.41
			c0-0.236-0.084-0.361-0.244-0.361c-0.176,0-0.311,0.109-0.395,0.318c-0.084,0.211-0.168,0.471-0.244,0.789
			c0,0.018-0.008,0.035-0.025,0.043s-0.033,0.008-0.041,0.008h-0.102c-0.018,0-0.033-0.008-0.051-0.025
			c-0.016-0.016-0.016-0.041-0.016-0.059c0.059-0.242,0.117-0.453,0.176-0.621c0.051-0.168,0.143-0.318,0.26-0.463
			c0.117-0.133,0.262-0.209,0.445-0.209c0.201,0,0.387,0.066,0.555,0.201c0.16,0.135,0.244,0.303,0.244,0.504
			c0.168-0.219,0.361-0.387,0.588-0.512c0.219-0.127,0.461-0.193,0.713-0.193c0.262,0,0.488,0.066,0.682,0.201
			s0.293,0.328,0.293,0.58c0.168-0.244,0.369-0.438,0.605-0.572c0.227-0.133,0.479-0.209,0.756-0.209
			c0.285,0,0.521,0.084,0.697,0.234c0.176,0.16,0.27,0.387,0.27,0.672c0,0.236-0.061,0.514-0.16,0.832
			c-0.102,0.328-0.227,0.689-0.379,1.092c-0.084,0.203-0.117,0.371-0.117,0.504c0,0.168,0.059,0.252,0.193,0.252
			c0.219,0,0.395-0.117,0.547-0.352c0.143-0.236,0.242-0.488,0.311-0.756c0.016-0.035,0.033-0.051,0.066-0.051h0.102
			c0.016,0,0.033,0.008,0.051,0.025c0.016,0.016,0.023,0.033,0.023,0.051c0,0.008-0.008,0.016-0.008,0.023
			c-0.084,0.32-0.219,0.613-0.402,0.875c-0.186,0.268-0.42,0.395-0.707,0.395c-0.201,0-0.369-0.068-0.504-0.193
			c-0.143-0.135-0.209-0.295-0.209-0.496c0-0.092,0.016-0.201,0.066-0.328c0.152-0.42,0.285-0.789,0.395-1.125
			c0.102-0.328,0.16-0.621,0.16-0.873c0-0.152-0.033-0.285-0.092-0.395c-0.068-0.109-0.168-0.168-0.32-0.168
			c-0.301,0-0.57,0.1-0.797,0.285s-0.42,0.438-0.58,0.738c-0.018,0.061-0.025,0.102-0.025,0.127l-0.537,2.158
			c-0.025,0.084-0.068,0.143-0.135,0.193s-0.143,0.076-0.219,0.076c-0.066,0-0.125-0.025-0.176-0.059s-0.076-0.094-0.076-0.168
			c0-0.033,0-0.059,0.01-0.076l0.537-2.143c0.051-0.227,0.084-0.42,0.084-0.57c0-0.152-0.033-0.285-0.102-0.395
			c-0.066-0.109-0.168-0.168-0.318-0.168c-0.211,0-0.404,0.051-0.572,0.135c-0.168,0.092-0.318,0.209-0.445,0.361
			c-0.133,0.15-0.252,0.326-0.352,0.527l-0.572,2.285c-0.016,0.084-0.059,0.143-0.125,0.193c-0.068,0.051-0.143,0.076-0.227,0.076
			c-0.068,0-0.127-0.025-0.178-0.059C243.461,156.504,243.436,156.443,243.436,156.369"/>
		<path d="M252.268,154.58c-0.051,0-0.084-0.018-0.117-0.051s-0.043-0.076-0.043-0.117c0-0.035,0.01-0.076,0.043-0.109
			s0.066-0.059,0.117-0.059h2.469v-2.479c0-0.043,0.016-0.076,0.051-0.109c0.033-0.025,0.066-0.041,0.117-0.041
			c0.033,0,0.076,0.016,0.109,0.041c0.033,0.033,0.059,0.066,0.059,0.109v2.479h2.469c0.035,0,0.068,0.025,0.102,0.059
			s0.051,0.074,0.051,0.109c0,0.041-0.018,0.084-0.051,0.117s-0.066,0.051-0.102,0.051h-2.469v2.469
			c0,0.043-0.025,0.076-0.059,0.109c-0.033,0.025-0.076,0.043-0.109,0.043c-0.051,0-0.084-0.018-0.117-0.043
			c-0.035-0.033-0.051-0.066-0.051-0.109v-2.469H252.268"/>
		<path d="M259.336,156.369c0-0.033,0-0.059,0.01-0.076l0.629-2.504c0.033-0.15,0.059-0.293,0.059-0.41
			c0-0.236-0.084-0.361-0.244-0.361c-0.176,0-0.311,0.109-0.395,0.318c-0.084,0.211-0.168,0.471-0.242,0.789
			c0,0.018-0.01,0.035-0.025,0.043c-0.018,0.008-0.035,0.008-0.043,0.008h-0.1c-0.018,0-0.035-0.008-0.051-0.025
			c-0.018-0.016-0.018-0.041-0.018-0.059c0.059-0.242,0.117-0.453,0.176-0.621c0.051-0.168,0.145-0.318,0.262-0.463
			c0.117-0.133,0.26-0.209,0.445-0.209c0.201,0,0.387,0.066,0.555,0.201c0.158,0.135,0.242,0.303,0.242,0.504
			c0.168-0.219,0.361-0.387,0.588-0.512c0.219-0.127,0.463-0.193,0.715-0.193c0.193,0,0.361,0.041,0.512,0.109
			c0.143,0.066,0.252,0.176,0.336,0.311s0.127,0.303,0.127,0.486c0,0.236-0.059,0.514-0.16,0.832
			c-0.1,0.328-0.227,0.689-0.377,1.092c-0.084,0.186-0.119,0.354-0.119,0.504c0,0.168,0.059,0.252,0.193,0.252
			c0.219,0,0.395-0.117,0.547-0.352c0.143-0.236,0.244-0.488,0.311-0.756c0.008-0.035,0.033-0.051,0.066-0.051h0.102
			c0.018,0,0.033,0.008,0.051,0.025c0.016,0.016,0.025,0.033,0.025,0.051c0,0.008-0.01,0.016-0.01,0.023
			c-0.074,0.32-0.209,0.613-0.395,0.875c-0.193,0.268-0.428,0.395-0.713,0.395c-0.203,0-0.371-0.068-0.504-0.193
			c-0.143-0.135-0.211-0.295-0.211-0.496c0-0.1,0.018-0.209,0.068-0.328c0.066-0.184,0.143-0.402,0.234-0.654
			s0.168-0.486,0.227-0.723c0.059-0.234,0.092-0.436,0.092-0.621c0-0.152-0.033-0.285-0.1-0.395
			c-0.068-0.109-0.168-0.168-0.32-0.168c-0.209,0-0.402,0.051-0.57,0.135c-0.168,0.092-0.32,0.209-0.445,0.361
			c-0.135,0.15-0.252,0.326-0.354,0.527l-0.57,2.285c-0.018,0.084-0.059,0.143-0.127,0.193c-0.066,0.051-0.143,0.076-0.227,0.076
			c-0.066,0-0.125-0.025-0.176-0.059S259.336,156.443,259.336,156.369"/>
	</g>
</g>
</svg>
